<?xml version="1.0" encoding="UTF-8" ?>
<!DOCTYPE svg PUBLIC "-//W3C//DTD SVG 1.1//EN" "http://www.w3.org/Graphics/SVG/1.1/DTD/svg11.dtd">
<svg width="340pt" height="270pt" viewBox="0 0 340 270" version="1.1" xmlns="http://www.w3.org/2000/svg">
<path fill="#020202" stroke="#020202" stroke-width="0.09375" opacity="1.00" d=" M 157.19 0.00 L 195.56 0.00 C 205.29 2.08 215.18 0.59 224.98 0.50 C 239.29 0.52 251.00 9.80 261.70 18.20 C 267.77 22.67 271.29 29.48 275.30 35.66 C 277.79 39.71 281.59 42.72 285.49 45.34 C 292.83 50.57 300.20 55.90 306.39 62.50 C 313.46 69.49 320.94 76.96 323.61 86.85 C 327.15 97.97 324.16 109.70 325.45 121.06 C 326.17 125.88 328.72 130.22 329.37 135.05 C 330.18 145.59 326.55 155.78 326.10 166.26 C 323.75 157.76 322.02 148.93 317.72 141.13 C 315.96 137.88 311.88 135.93 311.48 132.00 C 311.79 128.22 314.05 124.79 313.74 120.91 C 313.31 116.44 310.89 112.41 310.61 107.89 C 313.09 106.89 315.30 105.36 316.92 103.20 C 314.89 98.91 312.08 95.07 309.42 91.15 C 309.11 87.17 310.96 82.34 307.85 79.09 C 303.66 74.89 298.36 71.52 295.64 66.06 C 292.98 61.71 290.31 56.68 285.30 54.70 C 285.53 62.15 290.59 68.14 292.46 75.14 C 284.23 70.57 282.59 60.60 277.74 53.32 C 274.92 48.64 268.23 48.77 265.40 44.14 C 266.11 42.15 267.26 40.34 268.15 38.42 C 265.29 36.30 261.76 35.24 259.04 32.92 C 257.55 29.91 258.65 25.54 255.48 23.51 C 252.47 21.53 249.25 19.90 246.23 17.94 C 243.54 16.35 240.81 13.90 237.45 14.72 C 237.15 17.29 236.72 19.85 236.14 22.38 C 233.66 22.40 230.84 22.91 228.78 21.17 C 224.77 17.46 225.51 10.46 220.40 7.70 C 216.37 5.62 212.30 9.77 208.17 8.60 C 204.03 7.36 200.58 4.21 196.22 3.66 C 193.30 4.30 190.99 6.52 188.05 7.06 C 185.36 6.83 182.71 5.94 179.99 6.27 C 177.32 6.82 174.82 8.19 172.03 8.18 C 167.90 8.43 163.95 5.00 159.87 6.94 C 155.36 9.25 151.60 13.94 146.07 13.53 C 141.31 12.45 137.02 9.89 132.67 7.74 C 141.47 7.86 149.53 3.88 157.19 0.00 Z" />
<path fill="#020202" stroke="#020202" stroke-width="0.09375" opacity="1.00" d=" M 117.50 7.11 C 123.05 8.13 128.57 9.37 133.95 11.08 C 146.01 16.18 155.76 26.40 160.43 38.62 C 162.31 42.68 163.03 47.11 164.35 51.35 C 168.25 44.28 171.93 36.02 170.51 27.73 C 172.98 29.29 174.79 31.54 175.82 34.26 C 181.89 45.43 184.88 58.21 184.27 70.92 C 183.82 73.71 183.44 76.51 183.40 79.33 C 186.56 81.79 190.59 80.06 194.13 79.64 C 199.70 78.60 203.86 74.56 207.26 70.31 C 205.79 76.86 205.15 83.56 203.21 90.00 C 200.69 98.38 198.37 106.85 194.92 114.90 C 194.09 116.19 195.19 117.39 195.81 118.47 C 198.72 118.19 201.91 119.02 204.57 117.46 C 206.66 116.24 208.46 114.61 210.38 113.16 C 208.07 123.95 206.09 135.88 197.91 143.98 C 195.85 147.33 195.45 151.51 193.00 154.65 C 190.52 157.33 185.89 158.77 185.77 163.03 C 186.77 174.92 184.60 187.54 177.60 197.43 C 174.27 202.55 168.82 205.67 163.71 208.74 C 154.45 212.80 144.19 216.01 133.99 214.08 C 119.93 211.73 108.34 202.16 99.76 191.23 C 98.04 189.00 94.97 186.91 92.09 188.20 C 79.68 191.22 66.25 193.87 56.58 202.86 C 57.12 195.34 60.60 188.48 64.00 181.89 C 65.30 179.02 68.71 177.35 69.05 174.04 C 67.96 171.20 64.53 170.47 62.25 168.82 C 55.59 164.48 47.96 161.41 39.94 161.18 C 38.40 161.10 37.19 162.25 35.82 162.78 C 38.50 155.70 45.21 151.38 51.07 147.10 C 53.90 144.97 57.75 144.51 60.19 141.84 C 47.34 138.44 37.17 129.18 28.10 119.91 C 25.61 117.12 21.96 115.79 19.38 113.12 C 25.26 113.45 31.16 113.87 37.02 112.98 C 44.56 112.03 53.19 113.26 59.73 108.69 C 58.75 99.61 55.50 90.48 49.44 83.51 C 45.07 79.08 39.82 75.69 34.59 72.37 C 30.72 69.39 26.47 66.98 22.16 64.70 C 27.75 65.33 32.79 62.26 38.20 61.47 C 42.08 60.54 46.12 60.70 50.00 59.80 C 55.97 60.31 62.05 60.38 67.84 62.10 C 71.38 62.95 74.49 65.53 78.32 64.76 C 80.11 61.08 79.27 56.93 79.49 53.00 C 79.83 41.90 76.47 30.38 69.00 22.00 C 67.32 20.02 65.50 18.16 63.69 16.31 C 71.61 16.14 79.74 15.76 87.34 18.39 C 95.32 20.06 102.01 24.94 108.51 29.58 C 114.52 33.83 119.21 39.56 124.47 44.64 C 126.37 42.00 127.36 38.87 128.46 35.85 C 129.52 27.36 126.19 19.21 121.96 12.05 C 120.55 10.33 118.92 8.81 117.50 7.11 M 122.99 10.05 C 128.30 17.88 132.09 27.45 129.94 37.02 C 129.30 41.63 126.37 45.37 124.43 49.48 C 115.74 37.20 103.75 26.95 89.61 21.53 C 82.89 19.01 75.69 18.48 68.63 17.60 C 69.79 19.88 71.85 21.49 73.30 23.56 C 78.69 31.60 81.38 41.31 81.46 50.94 C 81.28 56.85 81.55 62.94 79.40 68.55 C 71.40 64.99 62.80 62.66 54.04 62.15 C 45.83 61.85 37.88 64.18 29.86 65.51 C 29.95 68.09 32.95 68.17 34.60 69.42 C 41.59 74.65 49.50 79.08 54.67 86.34 C 58.89 92.74 60.82 100.40 61.46 107.95 C 61.77 109.73 60.09 111.01 58.78 111.84 C 48.54 115.24 37.65 115.87 26.94 115.77 C 31.18 119.61 35.42 123.46 39.53 127.45 C 47.87 134.47 57.47 140.99 68.58 142.21 C 68.37 142.52 67.96 143.13 67.76 143.44 C 56.58 143.65 47.41 151.64 40.18 159.38 C 48.18 159.09 55.92 162.19 62.66 166.28 C 66.07 168.71 70.09 170.50 72.72 173.86 C 71.73 175.79 70.51 177.58 69.11 179.22 C 64.47 184.66 61.35 191.25 59.27 198.05 C 69.92 190.24 83.27 187.78 96.01 185.55 C 94.31 183.05 92.68 179.48 89.15 179.55 C 79.05 180.25 72.97 166.48 78.69 158.81 C 80.12 156.71 83.67 155.99 83.64 153.04 C 80.28 136.98 77.69 120.24 81.12 103.94 C 83.35 89.05 91.42 74.50 104.53 66.61 C 109.93 63.08 116.15 61.17 122.26 59.29 C 130.08 57.86 138.49 57.19 146.00 60.33 C 153.09 62.75 158.66 68.00 163.33 73.66 C 166.85 78.16 168.85 83.56 171.49 88.57 C 173.94 91.79 178.14 93.08 180.51 96.39 C 184.79 101.54 186.44 108.55 185.28 115.11 C 183.98 122.08 182.99 129.21 180.15 135.77 C 175.78 140.65 169.03 141.46 162.90 142.15 C 161.39 141.87 160.07 141.09 159.03 139.97 C 165.11 139.92 171.52 139.20 176.70 135.75 C 179.08 133.41 181.01 130.21 180.73 126.75 C 177.34 131.54 171.68 134.27 165.86 134.49 C 159.01 135.58 151.63 133.19 146.94 128.03 C 143.28 124.43 142.05 119.05 142.33 114.05 C 141.78 106.67 146.13 99.86 151.26 94.94 C 154.35 91.64 158.89 90.50 163.08 89.29 C 165.11 88.86 168.10 90.30 169.56 88.89 C 166.73 84.68 165.00 79.87 162.38 75.54 C 157.82 70.07 152.20 65.22 145.53 62.54 C 138.36 59.29 130.03 59.59 122.57 61.64 C 112.99 64.04 103.68 68.54 96.98 75.94 C 88.65 83.82 84.92 95.12 82.67 106.06 C 81.71 116.31 81.43 126.67 82.74 136.89 C 84.59 145.76 85.55 154.86 88.66 163.43 C 92.87 178.45 100.99 192.89 113.76 202.22 C 123.07 210.18 135.93 214.06 148.03 211.70 C 156.97 209.62 165.96 206.17 172.59 199.60 C 176.94 195.58 179.33 190.01 181.42 184.59 C 184.59 174.01 183.45 162.78 182.68 151.95 C 182.51 146.50 180.66 141.22 180.81 135.76 C 181.61 135.46 182.41 135.17 183.22 134.88 C 184.66 135.54 186.22 135.80 187.77 136.07 C 189.56 137.02 191.27 138.10 192.99 139.18 C 193.93 140.71 193.91 143.23 195.85 143.84 C 198.68 140.19 200.98 136.14 203.03 132.01 C 205.34 127.37 205.71 122.08 207.79 117.35 C 206.08 119.80 202.86 120.45 200.05 120.32 C 197.09 120.20 193.74 120.21 191.44 118.05 C 191.74 114.39 194.60 111.58 195.42 108.03 C 198.43 97.99 201.59 87.98 203.93 77.76 C 202.38 78.18 201.02 78.98 199.88 80.10 C 194.87 82.15 189.44 83.07 184.03 82.54 C 182.73 82.55 180.89 81.70 181.11 80.14 C 181.91 70.67 182.60 60.95 180.24 51.62 C 179.04 46.06 176.58 40.93 174.45 35.69 C 174.12 35.35 173.47 34.67 173.14 34.33 L 173.30 33.96 C 173.00 33.06 172.73 32.15 172.41 31.26 C 172.55 34.51 173.00 37.91 171.51 40.95 C 168.54 47.00 166.17 53.32 163.05 59.30 C 162.85 57.16 162.92 55.00 162.58 52.87 C 159.63 39.00 152.61 25.36 140.60 17.29 C 135.07 14.17 129.28 11.23 122.99 10.05 M 144.79 110.02 C 143.06 117.26 145.58 125.96 152.37 129.72 C 157.03 132.82 162.82 132.80 168.19 132.38 C 171.55 131.22 174.91 129.75 177.25 126.96 C 180.94 123.73 182.11 118.72 183.07 114.12 C 185.61 102.91 175.73 90.26 163.96 91.36 C 154.60 92.91 146.51 100.64 144.79 110.02 M 182.53 136.76 C 183.96 143.68 184.70 150.73 186.34 157.61 C 189.17 154.44 194.29 152.05 193.59 147.02 C 193.51 141.06 187.63 137.89 182.53 136.76 M 82.75 157.29 C 78.91 160.95 77.70 166.56 79.77 171.49 C 82.16 175.46 86.71 177.71 91.26 177.96 C 89.01 171.02 86.29 164.23 84.52 157.15 C 84.08 157.18 83.19 157.25 82.75 157.29 Z" />
<path fill="#020202" stroke="#020202" stroke-width="0.09375" opacity="1.00" d=" M 101.86 17.12 C 105.74 13.00 111.41 10.50 117.12 11.10 C 119.71 13.63 121.63 16.72 122.95 20.08 C 120.53 21.09 117.93 22.06 116.32 24.26 C 114.76 26.01 112.56 29.01 109.94 27.24 C 105.61 24.46 101.43 21.44 96.98 18.85 C 98.61 18.30 100.33 17.95 101.86 17.12 Z" />
<path fill="#ffffff" stroke="#ffffff" stroke-width="0.09375" opacity="1.00" d=" M 122.99 10.05 C 129.28 11.23 135.07 14.17 140.60 17.29 C 152.61 25.36 159.63 39.00 162.58 52.87 C 162.92 55.00 162.85 57.16 163.05 59.30 C 166.17 53.32 168.54 47.00 171.51 40.95 C 173.00 37.91 172.55 34.51 172.41 31.26 C 172.73 32.15 173.00 33.06 173.30 33.96 L 173.14 34.33 C 173.47 34.67 174.12 35.35 174.45 35.69 C 176.58 40.93 179.04 46.06 180.24 51.62 C 182.60 60.95 181.91 70.67 181.11 80.14 C 180.89 81.70 182.73 82.55 184.03 82.54 C 189.44 83.07 194.87 82.15 199.88 80.10 C 201.02 78.98 202.38 78.18 203.93 77.76 C 201.59 87.98 198.43 97.99 195.42 108.03 C 194.60 111.58 191.74 114.39 191.44 118.05 C 193.74 120.21 197.09 120.20 200.05 120.32 C 202.86 120.45 206.08 119.80 207.79 117.35 C 205.71 122.08 205.34 127.37 203.03 132.01 C 200.98 136.14 198.68 140.19 195.85 143.84 C 193.91 143.23 193.93 140.71 192.99 139.18 C 191.27 138.10 189.56 137.02 187.77 136.07 C 186.22 135.80 184.66 135.54 183.22 134.88 C 182.41 135.17 181.61 135.46 180.81 135.76 C 180.66 141.22 182.51 146.50 182.68 151.95 C 183.45 162.78 184.59 174.01 181.42 184.59 C 179.33 190.01 176.94 195.58 172.59 199.60 C 165.96 206.17 156.97 209.62 148.03 211.70 C 135.93 214.06 123.07 210.18 113.76 202.22 C 100.99 192.89 92.87 178.45 88.66 163.43 C 85.55 154.86 84.59 145.76 82.74 136.89 C 81.43 126.67 81.71 116.31 82.67 106.06 C 84.92 95.12 88.65 83.82 96.98 75.94 C 103.68 68.54 112.99 64.04 122.57 61.64 C 130.03 59.59 138.36 59.29 145.53 62.54 C 152.20 65.22 157.82 70.07 162.38 75.54 C 165.00 79.87 166.73 84.68 169.56 88.89 C 168.10 90.30 165.11 88.86 163.08 89.29 C 158.89 90.50 154.35 91.64 151.26 94.94 C 146.13 99.86 141.78 106.67 142.33 114.05 C 142.05 119.05 143.28 124.43 146.94 128.03 C 151.63 133.19 159.01 135.58 165.86 134.49 C 171.68 134.27 177.34 131.54 180.73 126.75 C 181.01 130.21 179.08 133.41 176.70 135.75 C 171.52 139.20 165.11 139.92 159.03 139.97 C 160.07 141.09 161.39 141.87 162.90 142.15 C 169.03 141.46 175.78 140.65 180.15 135.77 C 182.99 129.21 183.98 122.08 185.28 115.11 C 186.44 108.55 184.79 101.54 180.51 96.39 C 178.14 93.08 173.94 91.79 171.49 88.57 C 168.85 83.56 166.85 78.16 163.33 73.66 C 158.66 68.00 153.09 62.75 146.00 60.33 C 138.49 57.19 130.08 57.86 122.26 59.29 C 116.15 61.17 109.93 63.08 104.53 66.61 C 91.42 74.50 83.35 89.05 81.12 103.94 C 77.69 120.24 80.28 136.98 83.64 153.04 C 83.67 155.99 80.12 156.71 78.69 158.81 C 72.97 166.48 79.05 180.25 89.15 179.55 C 92.68 179.48 94.31 183.05 96.01 185.55 C 83.27 187.78 69.92 190.24 59.27 198.05 C 61.35 191.25 64.47 184.66 69.11 179.22 C 70.51 177.58 71.73 175.79 72.72 173.86 C 70.09 170.50 66.07 168.71 62.66 166.28 C 55.92 162.19 48.18 159.09 40.18 159.38 C 47.41 151.64 56.58 143.65 67.76 143.44 C 67.96 143.13 68.37 142.52 68.58 142.21 C 57.47 140.99 47.87 134.47 39.53 127.45 C 35.42 123.46 31.18 119.61 26.94 115.77 C 37.65 115.87 48.54 115.24 58.78 111.84 C 60.09 111.01 61.77 109.73 61.46 107.95 C 60.82 100.40 58.89 92.74 54.67 86.34 C 49.50 79.08 41.59 74.65 34.60 69.42 C 32.95 68.17 29.95 68.09 29.86 65.51 C 37.88 64.18 45.83 61.85 54.04 62.15 C 62.80 62.66 71.40 64.99 79.40 68.55 C 81.55 62.94 81.28 56.85 81.46 50.94 C 81.38 41.31 78.69 31.60 73.30 23.56 C 71.85 21.49 69.79 19.88 68.63 17.60 C 75.69 18.48 82.89 19.01 89.61 21.53 C 103.75 26.95 115.74 37.20 124.43 49.48 C 126.37 45.37 129.30 41.63 129.94 37.02 C 132.09 27.45 128.30 17.88 122.99 10.05 M 101.13 85.27 C 97.40 88.42 91.97 92.96 94.81 98.39 C 97.41 98.47 100.19 98.72 102.59 97.48 C 111.01 93.40 118.81 87.72 128.07 85.62 C 136.62 84.14 145.32 84.29 153.97 84.20 C 157.02 84.36 159.84 83.02 162.46 81.61 C 161.65 78.46 160.39 74.96 157.11 73.65 C 151.68 71.59 145.72 71.38 139.99 71.91 C 126.28 73.53 112.87 77.95 101.13 85.27 M 118.05 100.16 C 103.62 100.73 92.32 115.93 95.30 129.89 C 96.48 139.22 105.73 146.37 115.02 145.65 C 122.56 145.95 129.86 142.47 135.05 137.14 C 137.89 133.73 139.37 129.38 140.23 125.08 C 140.55 119.90 139.16 114.60 136.60 110.09 C 132.58 104.00 125.46 99.73 118.05 100.16 M 151.33 133.78 C 152.46 140.32 157.17 146.09 156.76 152.88 C 156.31 156.98 151.34 156.06 149.58 153.47 C 146.93 149.47 145.38 144.83 142.48 140.97 C 141.05 143.10 142.95 145.23 143.80 147.17 C 145.81 150.66 147.59 154.42 150.49 157.29 C 153.26 160.10 158.07 157.70 158.66 154.15 C 159.64 149.51 157.22 145.18 156.16 140.80 C 155.47 137.92 154.01 135.26 151.33 133.78 M 97.19 145.26 C 97.50 146.67 98.25 147.74 99.47 148.45 C 104.48 151.52 110.58 153.95 116.49 152.13 C 121.22 150.64 126.40 149.64 130.16 146.15 C 124.75 145.79 120.33 149.77 114.98 150.14 C 108.48 151.71 102.97 147.25 97.19 145.26 M 108.73 180.10 C 110.10 182.50 111.69 185.69 114.85 185.78 C 113.55 182.39 110.23 180.06 109.84 176.30 C 109.78 172.95 113.06 170.20 112.05 166.81 C 109.20 170.41 106.32 175.55 108.73 180.10 M 124.56 171.43 C 121.04 172.89 117.09 173.64 114.02 175.97 C 114.79 176.46 116.34 177.42 117.11 177.91 C 117.60 177.04 118.08 176.18 118.57 175.31 C 118.63 176.47 118.70 177.64 118.78 178.80 C 120.02 181.26 120.98 183.93 122.97 185.93 C 125.52 181.53 130.67 178.84 131.37 173.46 C 126.83 174.82 123.31 179.25 122.76 184.02 C 121.94 181.30 121.09 178.60 120.28 175.88 C 121.45 175.11 122.69 174.44 124.02 173.97 C 134.62 170.43 146.16 168.86 157.16 171.44 C 161.25 172.29 164.84 174.60 168.85 175.73 C 168.77 175.33 168.61 174.54 168.52 174.15 C 161.21 168.91 151.80 167.79 143.00 168.25 C 136.66 167.80 130.60 169.86 124.56 171.43 M 173.45 170.52 C 172.37 172.31 172.88 174.64 172.38 176.63 C 170.69 179.39 168.22 181.52 166.21 184.03 C 171.38 183.55 175.59 178.13 175.13 173.00 C 175.01 171.95 175.15 169.44 173.45 170.52 Z" />
<path fill="#020202" stroke="#020202" stroke-width="0.09375" opacity="1.00" d=" M 164.52 18.36 C 169.80 15.91 175.95 16.66 181.13 14.00 C 183.69 12.88 186.35 14.48 188.82 15.11 C 193.15 16.88 197.72 13.85 202.12 15.26 C 205.05 15.58 207.00 18.00 209.42 19.41 C 212.53 21.65 216.54 22.81 218.82 26.07 C 220.48 28.30 222.01 30.81 224.54 32.15 C 229.09 34.55 233.97 36.84 237.19 41.01 C 239.83 44.19 241.79 48.26 245.75 50.06 C 249.33 52.02 253.82 51.49 257.20 53.85 C 260.46 57.31 262.75 61.64 266.41 64.72 C 269.61 66.47 272.94 62.50 276.21 63.67 C 277.66 64.92 278.61 66.97 278.92 68.85 C 278.06 71.14 276.47 73.04 275.19 75.10 C 279.44 79.53 284.12 83.87 286.21 89.82 C 288.15 93.95 289.09 99.16 293.13 101.83 C 293.35 97.07 293.99 92.37 294.57 87.65 C 297.00 90.62 299.37 93.68 301.40 96.94 C 302.77 100.73 299.60 103.82 297.07 106.13 C 299.08 112.87 306.30 116.80 307.05 123.99 C 307.48 126.30 307.04 128.64 306.58 130.90 C 303.88 127.57 304.74 122.87 302.40 119.40 C 298.31 115.16 293.29 111.46 290.89 105.91 C 288.27 101.07 285.15 96.14 280.44 93.11 C 280.10 96.85 282.40 99.95 283.88 103.17 C 285.37 106.11 286.26 109.34 287.90 112.21 C 289.34 114.76 292.38 116.10 293.24 119.01 C 290.06 117.66 286.82 116.16 284.38 113.65 C 282.37 111.59 282.25 108.31 280.06 106.40 C 278.48 104.90 276.24 105.55 274.31 105.41 C 274.00 100.50 276.46 95.87 275.75 90.95 C 274.47 87.22 270.37 85.87 267.96 83.03 C 263.34 78.62 260.80 71.93 254.52 69.46 C 250.01 67.54 246.01 64.37 241.16 63.36 C 243.40 69.81 251.10 71.19 254.22 76.95 C 256.57 80.58 261.34 81.94 263.04 86.11 C 264.87 90.14 267.32 93.89 268.93 98.02 C 265.53 96.82 263.35 93.84 260.46 91.87 C 260.39 95.62 261.05 99.63 263.37 102.67 C 266.67 106.13 270.53 109.01 273.76 112.53 C 269.09 112.78 264.59 111.07 259.92 111.26 C 257.60 111.55 257.18 108.75 256.89 107.09 C 256.75 103.43 256.30 99.66 254.39 96.45 C 252.10 93.38 248.65 91.30 246.66 87.99 C 245.83 82.82 248.19 76.36 243.47 72.50 C 236.92 67.61 232.10 60.85 227.76 54.02 C 225.40 49.42 221.38 45.27 216.09 44.40 C 213.42 44.18 210.54 43.85 207.99 44.84 C 206.41 45.37 207.12 47.24 208.12 47.95 C 212.16 51.01 217.90 51.64 220.86 56.11 C 224.35 61.65 228.72 66.72 231.14 72.88 C 225.63 70.96 219.09 68.85 216.54 63.08 C 215.48 61.21 214.90 59.08 213.67 57.30 C 210.90 54.60 206.70 55.96 203.37 54.71 C 197.63 52.42 194.08 46.53 188.01 44.84 C 185.45 43.84 181.72 43.26 181.16 40.01 C 180.37 37.08 179.10 34.33 177.86 31.58 C 183.37 31.39 188.89 32.29 193.86 34.73 C 199.35 37.28 205.30 35.26 211.03 35.43 C 215.31 35.36 219.02 38.36 223.37 37.67 C 220.67 35.01 216.88 34.12 213.56 32.51 C 208.49 30.43 203.66 27.15 197.99 27.11 C 193.18 27.06 188.29 27.76 183.55 26.59 C 180.25 25.96 177.26 24.22 173.89 23.91 C 169.72 23.39 165.60 24.57 161.60 25.60 C 160.85 26.82 160.09 28.03 159.35 29.25 C 157.56 27.58 156.62 25.10 154.43 23.88 C 155.75 21.45 158.57 21.65 160.96 21.57 C 158.27 21.44 155.47 21.01 152.90 22.01 C 151.98 20.75 151.01 19.52 150.07 18.28 C 154.61 20.43 159.95 20.47 164.52 18.36 Z" />
<path fill="#020202" stroke="#020202" stroke-width="0.09375" opacity="1.00" d=" M 124.93 25.36 C 126.49 30.50 126.17 36.15 124.05 41.09 C 121.75 37.18 118.18 34.39 114.75 31.55 C 118.49 30.12 122.91 29.27 124.93 25.36 Z" />
<path fill="#020202" stroke="#020202" stroke-width="0.09375" opacity="1.00" d=" M 159.88 30.05 C 161.13 31.10 162.23 32.33 163.52 33.35 C 165.01 33.75 166.58 33.72 168.12 33.90 C 167.10 37.55 167.31 41.63 165.07 44.86 C 164.83 39.40 160.73 35.29 159.88 30.05 Z" />
<path fill="#020202" stroke="#020202" stroke-width="0.09375" opacity="1.00" d=" M 73.43 57.44 C 74.75 55.26 75.50 52.80 76.73 50.57 C 77.30 54.29 76.51 58.03 75.98 61.70 C 73.50 61.07 71.03 60.42 68.64 59.50 C 70.24 58.86 72.14 58.70 73.43 57.44 Z" />
<path fill="#020202" stroke="#020202" stroke-width="0.09375" opacity="1.00" d=" M 101.13 85.27 C 112.87 77.95 126.28 73.53 139.99 71.91 C 145.72 71.38 151.68 71.59 157.11 73.65 C 160.39 74.96 161.65 78.46 162.46 81.61 C 159.84 83.02 157.02 84.36 153.97 84.20 C 145.32 84.29 136.62 84.14 128.07 85.62 C 118.81 87.72 111.01 93.40 102.59 97.48 C 100.19 98.72 97.41 98.47 94.81 98.39 C 91.97 92.96 97.40 88.42 101.13 85.27 M 114.83 80.66 C 107.89 83.70 100.82 87.51 96.50 93.96 C 96.52 94.54 96.57 95.70 96.59 96.29 C 99.36 97.00 101.83 95.33 104.17 94.12 C 111.02 89.90 118.14 85.86 126.01 83.93 C 131.17 82.21 136.66 82.45 142.02 82.47 C 145.36 82.54 148.63 81.65 151.97 81.74 C 154.52 81.58 157.64 82.33 159.46 80.00 C 159.81 77.13 156.56 75.87 154.57 74.60 C 150.71 74.53 146.90 73.42 143.03 73.82 C 133.33 74.41 123.80 76.99 114.83 80.66 Z" />
<path fill="#ffffff" stroke="#ffffff" stroke-width="0.09375" opacity="1.00" d=" M 114.83 80.66 C 123.80 76.99 133.33 74.41 143.03 73.82 C 146.90 73.42 150.71 74.53 154.57 74.60 C 156.56 75.87 159.81 77.13 159.46 80.00 C 157.64 82.33 154.52 81.58 151.97 81.74 C 148.63 81.65 145.36 82.54 142.02 82.47 C 136.66 82.45 131.17 82.21 126.01 83.93 C 118.14 85.86 111.02 89.90 104.17 94.12 C 101.83 95.33 99.36 97.00 96.59 96.29 C 96.57 95.70 96.52 94.54 96.50 93.96 C 100.82 87.51 107.89 83.70 114.83 80.66 Z" />
<path fill="#020202" stroke="#020202" stroke-width="0.09375" opacity="1.00" d=" M 209.54 78.62 C 212.50 77.09 215.89 78.26 219.02 78.39 C 221.94 78.78 225.24 78.10 227.79 79.91 C 230.02 82.09 230.35 85.38 231.89 87.98 C 235.15 91.10 239.66 92.96 242.15 96.87 C 243.27 99.78 242.05 102.90 241.43 105.80 C 240.55 108.81 240.15 112.73 236.96 114.27 C 233.75 115.99 230.67 117.91 227.53 119.74 C 229.90 116.42 231.15 112.04 229.70 108.09 C 229.38 106.33 227.40 106.18 226.10 105.48 C 223.67 105.76 221.27 106.13 218.84 106.30 C 217.91 105.81 216.99 105.33 216.07 104.86 C 215.04 102.38 214.03 99.90 213.05 97.42 C 216.38 98.48 219.67 99.64 222.95 100.85 C 223.15 97.48 220.67 94.49 217.43 93.80 C 213.52 94.36 212.21 90.32 210.79 87.54 C 210.00 87.47 208.43 87.33 207.65 87.26 C 207.97 84.42 206.47 80.34 209.54 78.62 Z" />
<path fill="#020202" stroke="#020202" stroke-width="0.09375" opacity="1.00" d=" M 47.92 85.36 C 49.24 86.72 50.49 88.18 51.20 89.96 C 53.83 95.67 56.57 101.66 56.47 108.08 C 51.18 109.44 45.74 110.37 40.27 110.60 C 41.36 109.28 42.46 107.97 43.52 106.62 C 43.35 99.21 49.52 92.86 47.92 85.36 Z" />
<path fill="#ffffff" stroke="#ffffff" stroke-width="0.09375" opacity="1.00" d=" M 144.79 110.02 C 146.51 100.64 154.60 92.91 163.96 91.36 C 175.73 90.26 185.61 102.91 183.07 114.12 C 182.11 118.72 180.94 123.73 177.25 126.96 C 174.91 129.75 171.55 131.22 168.19 132.38 C 162.82 132.80 157.03 132.82 152.37 129.72 C 145.58 125.96 143.06 117.26 144.79 110.02 M 163.16 110.35 C 161.90 110.98 159.82 112.08 161.33 113.62 C 164.37 113.25 167.35 111.78 169.28 109.36 C 167.23 109.54 165.05 109.38 163.16 110.35 Z" />
<path fill="#020202" stroke="#020202" stroke-width="0.09375" opacity="1.00" d=" M 118.05 100.16 C 125.46 99.73 132.58 104.00 136.60 110.09 C 139.16 114.60 140.55 119.90 140.23 125.08 C 139.37 129.38 137.89 133.73 135.05 137.14 C 129.86 142.47 122.56 145.95 115.02 145.65 C 105.73 146.37 96.48 139.22 95.30 129.89 C 92.32 115.93 103.62 100.73 118.05 100.16 M 115.61 102.63 C 102.94 105.22 93.68 119.53 98.04 132.03 C 99.59 136.31 102.98 139.84 107.06 141.80 C 119.35 147.19 136.37 139.02 137.77 125.12 C 139.72 112.93 128.20 99.95 115.61 102.63 Z" />
<path fill="#ffffff" stroke="#ffffff" stroke-width="0.09375" opacity="1.00" d=" M 115.61 102.63 C 128.20 99.95 139.72 112.93 137.77 125.12 C 136.37 139.02 119.35 147.19 107.06 141.80 C 102.98 139.84 99.59 136.31 98.04 132.03 C 93.68 119.53 102.94 105.22 115.61 102.63 M 116.70 128.71 C 117.74 125.23 118.32 121.37 116.81 117.93 C 114.06 120.70 114.91 125.59 116.70 128.71 Z" />
<path fill="#020202" stroke="#020202" stroke-width="0.09375" opacity="1.00" d=" M 163.16 110.35 C 165.05 109.38 167.23 109.54 169.28 109.36 C 167.35 111.78 164.37 113.25 161.33 113.62 C 159.82 112.08 161.90 110.98 163.16 110.35 Z" />
<path fill="#020202" stroke="#020202" stroke-width="0.09375" opacity="1.00" d=" M 240.58 116.35 C 250.65 112.47 261.56 114.23 271.97 115.20 C 279.57 116.03 286.91 118.67 293.54 122.44 C 298.93 125.54 302.90 130.44 307.74 134.26 C 311.80 137.94 316.35 141.68 317.81 147.22 C 320.51 156.38 324.26 165.43 324.63 175.09 C 324.99 181.10 323.75 187.03 322.43 192.85 C 320.90 200.16 319.41 207.73 315.12 214.01 C 312.28 217.67 315.48 221.97 314.46 225.96 C 313.97 229.27 311.49 231.94 308.80 233.73 C 305.40 235.20 301.58 234.30 297.99 234.47 C 295.21 234.16 293.08 236.25 290.89 237.62 C 282.17 243.74 271.52 246.40 261.00 247.07 C 246.72 246.27 232.46 241.68 221.14 232.78 C 214.48 226.90 208.46 219.95 205.33 211.51 C 204.31 208.70 203.66 205.64 201.90 203.19 C 198.75 201.08 194.09 200.54 192.42 196.66 C 190.98 193.22 191.13 189.05 192.41 185.57 C 193.21 182.72 196.87 181.94 197.57 179.03 C 198.93 174.49 195.30 170.50 195.80 166.01 C 195.97 163.03 196.47 159.81 198.50 157.49 C 202.21 152.99 206.05 148.43 208.24 142.96 C 209.23 140.73 209.91 138.36 211.03 136.18 C 215.06 130.89 221.37 128.24 226.58 124.37 C 230.90 121.14 235.72 118.66 240.58 116.35 M 231.02 124.35 C 225.94 127.91 220.47 130.88 215.49 134.56 C 210.79 140.18 209.03 147.62 204.61 153.44 C 202.69 156.27 200.24 158.74 198.73 161.83 C 196.74 167.61 200.04 173.28 200.32 179.04 C 200.57 181.08 198.49 182.06 197.23 183.23 C 193.53 186.00 192.81 191.44 194.49 195.54 C 195.82 198.31 198.94 199.36 201.35 200.92 C 201.53 200.40 201.88 199.37 202.06 198.85 C 201.44 189.18 201.27 179.03 205.44 170.04 C 213.27 147.29 236.91 130.98 261.03 132.44 C 276.17 132.92 291.34 139.08 301.98 150.00 C 308.04 156.35 311.81 164.52 314.09 172.91 C 316.18 179.78 315.56 187.05 315.43 194.13 C 313.46 207.73 308.38 221.41 298.42 231.20 C 298.20 233.58 301.61 232.15 303.03 232.56 C 307.62 233.09 311.20 229.13 312.43 225.09 C 312.89 222.52 311.72 220.13 310.86 217.79 C 313.00 212.80 316.23 208.29 317.69 203.01 C 319.68 196.12 320.74 188.99 322.62 182.08 C 323.38 169.00 318.44 156.53 314.44 144.31 C 304.44 133.70 293.57 122.54 279.00 118.71 C 268.87 116.53 258.43 115.74 248.10 116.57 C 242.02 118.13 236.07 120.58 231.02 124.35 M 247.68 135.74 C 232.98 138.68 219.88 148.29 212.17 161.09 C 204.92 172.23 202.61 186.00 204.25 199.08 C 207.61 222.53 228.89 240.61 251.85 243.62 C 261.58 245.60 271.83 244.59 280.94 240.62 C 293.07 235.78 302.12 225.45 307.75 213.93 C 313.70 200.86 314.97 185.80 311.66 171.85 C 308.82 160.43 300.97 150.95 291.55 144.21 C 278.77 135.81 262.68 132.68 247.68 135.74 Z" />
<path fill="#ffffff" stroke="#ffffff" stroke-width="0.09375" opacity="1.00" d=" M 231.02 124.35 C 236.07 120.58 242.02 118.13 248.10 116.57 C 258.43 115.74 268.87 116.53 279.00 118.71 C 293.57 122.54 304.44 133.70 314.44 144.31 C 318.44 156.53 323.38 169.00 322.62 182.08 C 320.74 188.99 319.68 196.12 317.69 203.01 C 316.23 208.29 313.00 212.80 310.86 217.79 C 311.72 220.13 312.89 222.52 312.43 225.09 C 311.20 229.13 307.62 233.09 303.03 232.56 C 301.61 232.15 298.20 233.58 298.42 231.20 C 308.38 221.41 313.46 207.73 315.43 194.13 C 315.56 187.05 316.18 179.78 314.09 172.91 C 311.81 164.52 308.04 156.35 301.98 150.00 C 291.34 139.08 276.17 132.92 261.03 132.44 C 236.91 130.98 213.27 147.29 205.44 170.04 C 201.27 179.03 201.44 189.18 202.06 198.85 C 201.88 199.37 201.53 200.40 201.35 200.92 C 198.94 199.36 195.82 198.31 194.49 195.54 C 192.81 191.44 193.53 186.00 197.23 183.23 C 198.49 182.06 200.57 181.08 200.32 179.04 C 200.04 173.28 196.74 167.61 198.73 161.83 C 200.24 158.74 202.69 156.27 204.61 153.44 C 209.03 147.62 210.79 140.18 215.49 134.56 C 220.47 130.88 225.94 127.91 231.02 124.35 Z" />
<path fill="#020202" stroke="#020202" stroke-width="0.09375" opacity="1.00" d=" M 116.70 128.71 C 114.91 125.59 114.06 120.70 116.81 117.93 C 118.32 121.37 117.74 125.23 116.70 128.71 Z" />
<path fill="#020202" stroke="#020202" stroke-width="0.09375" opacity="1.00" d=" M 39.08 133.72 C 43.76 136.98 48.46 140.25 53.71 142.55 C 47.42 145.10 42.83 150.30 37.43 154.23 C 40.22 147.93 41.96 140.28 39.08 133.72 Z" />
<path fill="#020202" stroke="#020202" stroke-width="0.09375" opacity="1.00" d=" M 151.33 133.78 C 154.01 135.26 155.47 137.92 156.16 140.80 C 157.22 145.18 159.64 149.51 158.66 154.15 C 158.07 157.70 153.26 160.10 150.49 157.29 C 147.59 154.42 145.81 150.66 143.80 147.17 C 142.95 145.23 141.05 143.10 142.48 140.97 C 145.38 144.83 146.93 149.47 149.58 153.47 C 151.34 156.06 156.31 156.98 156.76 152.88 C 157.17 146.09 152.46 140.32 151.33 133.78 Z" />
<path fill="#ffffff" stroke="#ffffff" stroke-width="0.09375" opacity="1.00" d=" M 247.68 135.74 C 262.68 132.68 278.77 135.81 291.55 144.21 C 300.97 150.95 308.82 160.43 311.66 171.85 C 314.97 185.80 313.70 200.86 307.75 213.93 C 302.12 225.45 293.07 235.78 280.94 240.62 C 271.83 244.59 261.58 245.60 251.85 243.62 C 228.89 240.61 207.61 222.53 204.25 199.08 C 202.61 186.00 204.92 172.23 212.17 161.09 C 219.88 148.29 232.98 138.68 247.68 135.74 M 243.08 140.21 C 240.47 140.60 236.77 140.64 235.76 143.67 C 240.49 142.67 245.39 141.34 250.20 142.69 C 254.08 143.37 257.66 145.34 261.59 145.75 C 261.60 143.40 258.77 143.11 257.09 142.48 C 252.53 141.28 247.87 139.32 243.08 140.21 M 237.04 147.15 C 232.55 148.33 227.60 149.92 224.83 153.93 C 219.35 160.15 219.18 169.90 222.99 177.00 C 229.07 188.00 245.35 191.23 255.11 183.31 C 265.38 175.78 264.54 158.81 254.65 151.32 C 249.73 147.52 243.15 145.76 237.04 147.15 M 283.35 151.91 C 283.86 152.63 284.38 153.35 284.90 154.07 C 287.64 154.90 290.41 155.65 293.10 156.63 C 298.06 158.58 301.47 162.84 305.64 165.95 C 305.03 164.16 304.49 162.26 303.10 160.91 C 297.97 155.48 290.55 153.03 283.35 151.91 M 280.14 163.13 C 274.32 165.23 269.32 169.84 267.76 175.95 C 265.70 180.76 266.71 186.17 268.70 190.82 C 272.61 199.45 282.81 204.64 292.08 202.75 C 300.38 201.45 307.80 194.51 308.89 186.05 C 310.77 175.32 302.70 164.15 291.96 162.51 C 288.03 162.19 283.92 161.83 280.14 163.13 M 257.08 188.19 C 259.59 190.45 261.47 193.28 262.94 196.30 C 261.77 197.51 260.11 198.34 258.49 197.47 C 255.44 195.71 252.63 193.49 249.24 192.40 C 251.34 196.07 255.19 198.46 258.97 200.12 C 261.75 201.19 264.28 199.57 265.41 197.04 C 264.04 193.41 261.92 187.19 257.08 188.19 M 238.02 202.15 C 233.77 202.98 229.00 203.50 225.90 206.88 C 222.68 209.65 221.52 214.37 222.66 218.38 C 224.98 222.34 230.22 221.64 234.03 220.89 C 239.98 219.49 246.84 217.99 252.20 221.93 C 257.15 224.64 259.15 231.21 265.00 232.41 C 267.96 231.74 269.89 229.05 270.59 226.23 C 271.88 222.79 269.61 219.43 268.88 216.14 C 268.35 216.97 267.84 217.82 267.33 218.67 C 267.08 218.08 266.57 216.90 266.31 216.32 C 266.78 215.89 267.25 215.47 267.72 215.05 C 262.87 209.22 256.65 204.19 248.95 202.98 C 245.33 202.47 241.68 201.38 238.02 202.15 Z" />
<path fill="#ffffff" stroke="#ffffff" stroke-width="0.09375" opacity="1.00" d=" M 182.53 136.76 C 187.63 137.89 193.51 141.06 193.59 147.02 C 194.29 152.05 189.17 154.44 186.34 157.61 C 184.70 150.73 183.96 143.68 182.53 136.76 Z" />
<path fill="#020202" stroke="#020202" stroke-width="0.09375" opacity="1.00" d=" M 243.08 140.21 C 247.87 139.32 252.53 141.28 257.09 142.48 C 258.77 143.11 261.60 143.40 261.59 145.75 C 257.66 145.34 254.08 143.37 250.20 142.69 C 245.39 141.34 240.49 142.67 235.76 143.67 C 236.77 140.64 240.47 140.60 243.08 140.21 Z" />
<path fill="#020202" stroke="#020202" stroke-width="0.09375" opacity="1.00" d=" M 97.19 145.26 C 102.97 147.25 108.48 151.71 114.98 150.14 C 120.33 149.77 124.75 145.79 130.16 146.15 C 126.40 149.64 121.22 150.64 116.49 152.13 C 110.58 153.95 104.48 151.52 99.47 148.45 C 98.25 147.74 97.50 146.67 97.19 145.26 Z" />
<path fill="#020202" stroke="#020202" stroke-width="0.09375" opacity="1.00" d=" M 237.04 147.15 C 243.15 145.76 249.73 147.52 254.65 151.32 C 264.54 158.81 265.38 175.78 255.11 183.31 C 245.35 191.23 229.07 188.00 222.99 177.00 C 219.18 169.90 219.35 160.15 224.83 153.93 C 227.60 149.92 232.55 148.33 237.04 147.15 M 238.96 148.87 C 233.17 149.82 227.25 152.98 224.59 158.43 C 222.06 162.89 221.48 168.61 223.70 173.31 C 227.40 181.53 236.86 187.59 245.98 185.14 C 255.68 183.36 262.84 172.61 259.79 163.02 C 257.49 154.01 248.10 147.87 238.96 148.87 Z" />
<path fill="#ffffff" stroke="#ffffff" stroke-width="0.09375" opacity="1.00" d=" M 238.96 148.87 C 248.10 147.87 257.49 154.01 259.79 163.02 C 262.84 172.61 255.68 183.36 245.98 185.14 C 236.86 187.59 227.40 181.53 223.70 173.31 C 221.48 168.61 222.06 162.89 224.59 158.43 C 227.25 152.98 233.17 149.82 238.96 148.87 M 236.65 168.73 C 236.56 169.20 236.37 170.15 236.28 170.62 C 239.71 169.94 243.30 169.25 245.97 166.80 C 242.72 166.32 239.15 166.26 236.65 168.73 Z" />
<path fill="#020202" stroke="#020202" stroke-width="0.09375" opacity="1.00" d=" M 283.35 151.91 C 290.55 153.03 297.97 155.48 303.10 160.91 C 304.49 162.26 305.03 164.16 305.64 165.95 C 301.47 162.84 298.06 158.58 293.10 156.63 C 290.41 155.65 287.64 154.90 284.90 154.07 C 284.38 153.35 283.86 152.63 283.35 151.91 Z" />
<path fill="#ffffff" stroke="#ffffff" stroke-width="0.09375" opacity="1.00" d=" M 82.75 157.29 C 83.19 157.25 84.08 157.18 84.52 157.15 C 86.29 164.23 89.01 171.02 91.26 177.96 C 86.71 177.71 82.16 175.46 79.77 171.49 C 77.70 166.56 78.91 160.95 82.75 157.29 Z" />
<path fill="#020202" stroke="#020202" stroke-width="0.09375" opacity="1.00" d=" M 280.14 163.13 C 283.92 161.83 288.03 162.19 291.96 162.51 C 302.70 164.15 310.77 175.32 308.89 186.05 C 307.80 194.51 300.38 201.45 292.08 202.75 C 282.81 204.64 272.61 199.45 268.70 190.82 C 266.71 186.17 265.70 180.76 267.76 175.95 C 269.32 169.84 274.32 165.23 280.14 163.13 M 277.87 166.80 C 271.69 170.10 268.44 177.25 268.60 184.08 C 270.82 192.79 278.51 200.98 287.98 200.72 C 298.01 201.65 307.98 192.14 306.75 181.96 C 306.75 176.32 303.19 171.32 298.82 168.05 C 292.98 163.35 284.24 162.86 277.87 166.80 Z" />
<path fill="#020202" stroke="#020202" stroke-width="0.09375" opacity="1.00" d=" M 38.15 164.48 C 43.51 163.18 50.68 164.50 53.41 169.87 C 55.14 173.03 58.28 175.58 58.79 179.30 C 58.55 186.45 54.86 192.94 54.25 200.03 C 54.06 202.35 55.85 205.66 58.58 204.60 C 62.19 202.80 64.86 199.05 69.12 198.58 C 71.05 198.81 71.46 201.23 72.45 202.60 C 74.64 207.30 78.22 211.19 82.40 214.22 C 82.79 209.49 80.27 205.32 78.78 201.01 C 78.22 198.74 76.25 197.34 74.81 195.65 C 76.72 195.88 78.62 196.23 80.47 196.78 C 80.42 198.38 80.38 199.98 80.39 201.58 C 80.82 200.44 81.25 199.30 81.70 198.17 C 84.47 204.03 87.14 209.98 90.43 215.56 C 93.12 219.97 98.86 220.26 102.36 223.61 C 102.72 226.03 100.94 228.16 100.33 230.42 C 103.21 233.67 108.22 233.84 110.63 237.62 C 110.32 238.53 109.69 240.35 109.37 241.25 C 111.40 245.36 115.83 247.00 119.39 249.46 C 123.05 251.71 126.68 254.70 131.25 254.50 C 131.38 251.87 131.38 249.23 131.56 246.61 C 134.34 246.56 137.51 246.08 139.78 248.09 C 143.60 251.56 142.05 258.53 146.99 261.13 C 151.35 263.09 155.58 259.03 159.99 260.00 C 163.81 261.32 166.82 264.70 171.00 264.98 C 174.51 265.53 176.72 261.94 179.98 261.48 C 182.34 261.83 184.57 262.97 187.00 262.88 C 190.12 262.84 192.87 261.09 195.92 260.69 C 199.33 260.84 202.57 262.46 206.01 262.26 C 210.41 261.91 213.10 257.92 217.04 256.47 C 221.16 254.91 225.70 255.52 229.93 254.44 C 235.73 252.80 241.13 249.92 247.00 248.54 C 251.03 248.34 255.03 249.04 259.04 249.30 C 268.33 249.61 277.68 247.76 285.92 243.39 C 282.16 247.80 279.31 253.56 273.67 255.87 C 258.70 261.80 242.05 262.60 227.61 270.00 L 143.41 270.00 C 136.12 267.39 128.84 264.63 121.92 261.13 C 114.67 256.85 107.52 252.30 101.13 246.78 C 86.74 234.25 72.53 221.51 58.41 208.69 C 49.82 201.86 42.32 192.93 39.76 182.03 C 38.00 176.34 38.59 170.33 38.15 164.48 Z" />
<path fill="#ffffff" stroke="#ffffff" stroke-width="0.09375" opacity="1.00" d=" M 277.87 166.80 C 284.24 162.86 292.98 163.35 298.82 168.05 C 303.19 171.32 306.75 176.32 306.75 181.96 C 307.98 192.14 298.01 201.65 287.98 200.72 C 278.51 200.98 270.82 192.79 268.60 184.08 C 268.44 177.25 271.69 170.10 277.87 166.80 M 285.16 181.09 C 285.57 184.43 288.26 186.96 291.04 188.55 C 291.57 187.98 292.07 187.35 292.39 186.63 C 290.69 184.01 287.78 182.59 285.16 181.09 Z" />
<path fill="#020202" stroke="#020202" stroke-width="0.09375" opacity="1.00" d=" M 236.65 168.73 C 239.15 166.26 242.72 166.32 245.97 166.80 C 243.30 169.25 239.71 169.94 236.28 170.62 C 236.37 170.15 236.56 169.20 236.65 168.73 Z" />
<path fill="#020202" stroke="#020202" stroke-width="0.09375" opacity="1.00" d=" M 108.73 180.10 C 106.32 175.55 109.20 170.41 112.05 166.81 C 113.06 170.20 109.78 172.95 109.84 176.30 C 110.23 180.06 113.55 182.39 114.85 185.78 C 111.69 185.69 110.10 182.50 108.73 180.10 Z" />
<path fill="#020202" stroke="#020202" stroke-width="0.09375" opacity="1.00" d=" M 124.56 171.43 C 130.60 169.86 136.66 167.80 143.00 168.25 C 151.80 167.79 161.21 168.91 168.52 174.15 C 168.61 174.54 168.77 175.33 168.85 175.73 C 164.84 174.60 161.25 172.29 157.16 171.44 C 146.16 168.86 134.62 170.43 124.02 173.97 C 122.69 174.44 121.45 175.11 120.28 175.88 C 121.09 178.60 121.94 181.30 122.76 184.02 C 123.31 179.25 126.83 174.82 131.37 173.46 C 130.67 178.84 125.52 181.53 122.97 185.93 C 120.98 183.93 120.02 181.26 118.78 178.80 C 118.70 177.64 118.63 176.47 118.57 175.31 C 118.08 176.18 117.60 177.04 117.11 177.91 C 116.34 177.42 114.79 176.46 114.02 175.97 C 117.09 173.64 121.04 172.89 124.56 171.43 Z" />
<path fill="#020202" stroke="#020202" stroke-width="0.09375" opacity="1.00" d=" M 173.45 170.52 C 175.15 169.44 175.01 171.95 175.13 173.00 C 175.59 178.13 171.38 183.55 166.21 184.03 C 168.22 181.52 170.69 179.39 172.38 176.63 C 172.88 174.64 172.37 172.31 173.45 170.52 Z" />
<path fill="#020202" stroke="#020202" stroke-width="0.09375" opacity="1.00" d=" M 285.16 181.09 C 287.78 182.59 290.69 184.01 292.39 186.63 C 292.07 187.35 291.57 187.98 291.04 188.55 C 288.26 186.96 285.57 184.43 285.16 181.09 Z" />
<path fill="#020202" stroke="#020202" stroke-width="0.09375" opacity="1.00" d=" M 257.08 188.19 C 261.92 187.19 264.04 193.41 265.41 197.04 C 264.28 199.57 261.75 201.19 258.97 200.12 C 255.19 198.46 251.34 196.07 249.24 192.40 C 252.63 193.49 255.44 195.71 258.49 197.47 C 260.11 198.34 261.77 197.51 262.94 196.30 C 261.47 193.28 259.59 190.45 257.08 188.19 Z" />
<path fill="#020202" stroke="#020202" stroke-width="0.09375" opacity="1.00" d=" M 89.00 192.25 C 91.66 189.40 96.44 190.45 98.35 193.64 C 102.51 199.65 108.35 204.12 114.02 208.60 C 121.57 214.14 130.87 216.30 139.98 217.58 C 142.70 217.79 144.04 220.42 145.98 221.95 C 150.07 225.35 155.99 225.57 160.77 223.61 C 160.96 223.27 161.36 222.58 161.55 222.24 C 160.22 221.06 159.01 219.74 157.54 218.74 C 155.09 217.73 152.41 217.41 150.00 216.28 C 154.57 214.86 159.30 213.29 164.16 213.77 C 170.72 216.30 174.95 223.10 181.95 224.78 C 185.89 225.83 188.44 222.29 191.66 220.89 C 194.68 220.25 197.57 221.75 200.45 222.40 C 204.34 223.69 208.90 223.96 211.88 227.11 C 215.93 231.45 220.17 235.69 225.21 238.88 C 227.52 240.12 229.93 241.23 231.97 242.93 C 226.54 242.67 222.73 246.94 218.29 249.32 C 213.89 249.36 209.29 248.51 205.05 250.02 C 198.98 252.05 192.55 252.65 186.49 254.75 C 183.60 255.84 180.92 253.80 178.09 253.48 C 175.04 252.83 172.00 253.67 169.01 254.24 C 165.80 254.51 163.03 252.51 160.57 250.71 C 157.40 248.39 153.70 246.86 150.67 244.34 C 148.82 241.98 147.68 238.88 144.96 237.34 C 141.11 235.06 137.23 232.84 133.46 230.43 C 129.13 227.74 128.41 221.60 123.57 219.50 C 119.60 216.76 114.02 217.99 110.53 214.46 C 107.03 211.22 105.22 206.28 100.90 203.94 C 99.54 202.92 98.10 204.26 96.82 204.72 C 94.83 205.90 92.58 205.11 90.60 204.40 C 90.05 202.33 89.14 200.13 89.85 197.98 C 90.94 196.15 92.66 194.86 94.16 193.40 C 92.44 193.52 89.18 195.02 89.00 192.25 M 145.10 231.19 L 145.14 232.09 C 148.98 234.58 153.54 235.48 157.71 237.24 C 160.79 238.72 163.75 240.54 167.04 241.55 C 171.34 242.06 175.69 241.49 180.02 241.63 C 186.29 241.41 191.64 246.00 197.97 245.33 C 201.82 244.91 206.00 243.71 208.66 240.73 C 210.53 236.90 205.40 236.40 202.96 235.45 C 197.02 233.16 190.98 235.71 185.07 236.59 C 178.63 237.59 173.39 232.23 167.02 232.65 C 162.71 232.87 158.34 234.29 154.08 232.86 C 151.08 232.55 148.01 230.49 145.10 231.19 Z" />
<path fill="#020202" stroke="#020202" stroke-width="0.09375" opacity="1.00" d=" M 238.02 202.15 C 241.68 201.38 245.33 202.47 248.95 202.98 C 256.65 204.19 262.87 209.22 267.72 215.05 C 267.25 215.47 266.78 215.89 266.31 216.32 C 266.57 216.90 267.08 218.08 267.33 218.67 C 267.84 217.82 268.35 216.97 268.88 216.14 C 269.61 219.43 271.88 222.79 270.59 226.23 C 269.89 229.05 267.96 231.74 265.00 232.41 C 259.15 231.21 257.15 224.64 252.20 221.93 C 246.84 217.99 239.98 219.49 234.03 220.89 C 230.22 221.64 224.98 222.34 222.66 218.38 C 221.52 214.37 222.68 209.65 225.90 206.88 C 229.00 203.50 233.77 202.98 238.02 202.15 M 232.96 207.14 C 235.93 210.84 240.18 207.35 243.40 205.99 C 243.48 206.83 243.65 208.51 243.73 209.35 C 246.04 209.59 248.36 209.57 250.68 209.45 C 251.09 213.14 255.91 213.97 258.08 211.33 C 259.28 213.66 259.61 216.63 261.79 218.31 C 263.24 219.35 264.42 218.69 264.57 216.91 C 262.26 210.27 255.38 207.15 249.10 205.35 C 243.77 203.63 237.61 203.73 232.96 207.14 Z" />
<path fill="#ffffff" stroke="#ffffff" stroke-width="0.09375" opacity="1.00" d=" M 232.96 207.14 C 237.61 203.73 243.77 203.63 249.10 205.35 C 255.38 207.15 262.26 210.27 264.57 216.91 C 264.42 218.69 263.24 219.35 261.79 218.31 C 259.61 216.63 259.28 213.66 258.08 211.33 C 255.91 213.97 251.09 213.14 250.68 209.45 C 248.36 209.57 246.04 209.59 243.73 209.35 C 243.65 208.51 243.48 206.83 243.40 205.99 C 240.18 207.35 235.93 210.84 232.96 207.14 Z" />
</svg>
